<?xml version="1.0" encoding="windows-1252"?>
<!-- Generator: Adobe Illustrator 19.0.0, SVG Export Plug-In . SVG Version: 6.00 Build 0)  -->
<svg version="1.1" id="Layer_1" xmlns="http://www.w3.org/2000/svg" xmlns:xlink="http://www.w3.org/1999/xlink" x="0px" y="0px" viewBox="0 0 511.999 511.999" style="enable-background:new 0 0 511.999 511.999;" xml:space="preserve">
<g>
	<g>
		<path d="M502.035,316.589c0-23.002-17.086-42.081-39.232-45.233c5.491-7.677,8.463-16.852,8.463-26.499    c0-25.189-20.502-45.683-45.7-45.683h-10.193c5.147-7.395,8.176-16.367,8.176-26.039c0-25.198-20.5-45.697-45.697-45.697h-65.605    v-31.27c38.996,3.075,75.095,4.154,106.438,4.154c8.408,0,16.481-0.077,24.173-0.214c5.431-0.097,9.753-4.576,9.658-10.006    c-0.096-5.431-4.607-9.761-10.006-9.658c-16.895,0.299-33.297,0.273-49.225-0.017l15.007-18.603    c3.41-4.227,2.747-10.418-1.48-13.827c-4.231-3.411-10.417-2.748-13.828,1.479l-24.421,30.275    c-19.588-0.72-38.364-1.846-56.313-3.292v-7.265c0-5.431-4.401-9.833-9.833-9.833c-5.432,0-9.833,4.403-9.833,9.833v5.525    C221.92,67.9,165.289,56.295,124.737,45.725c-5.132-1.337-10.073-2.679-14.861-4.017l46.22-13.734    c5.206-1.547,8.172-7.021,6.626-12.227c-1.547-5.205-7.022-8.169-12.226-6.625L75.704,31.345    C35.723,18.208,14.619,7.476,14.339,7.332C9.513,4.845,3.586,6.738,1.097,11.563c-2.49,4.826-0.597,10.758,4.23,13.247    c1.605,0.829,40.15,20.508,113.634,39.732c10.335,2.705,20.666,5.214,30.966,7.545l22.6,31.358    c1.922,2.667,4.931,4.084,7.985,4.084c1.993,0,4.003-0.603,5.741-1.857c4.405-3.176,5.403-9.321,2.228-13.727l-9.97-13.833    c39.266,7.707,77.745,12.925,114.071,16.352v32.972h-65.606c-25.198,0-45.697,20.5-45.697,45.697    c0,9.672,3.029,18.645,8.176,26.039h-10.182c-12.209,0-23.684,4.753-32.306,13.375c-8.638,8.614-13.394,20.087-13.394,32.308    c0,9.869,3.154,19.008,8.493,26.486c-9.756,1.366-18.78,5.834-25.906,12.941c-8.624,8.648-13.375,20.122-13.375,32.306    c0,23.011,17.097,42.094,39.253,45.237c-5.492,7.684-8.466,16.858-8.466,26.495c0,25.198,20.5,45.699,45.699,45.699h10.176    c-5.142,7.392-8.168,16.361-8.168,26.029c0,25.198,20.5,45.697,45.697,45.697h150.878c25.198,0,45.697-20.5,45.697-45.697    c0-9.668-3.026-18.636-8.168-26.029h10.185c12.187,0,23.66-4.75,32.314-13.384c8.632-8.631,13.386-20.107,13.386-32.315    c0-9.869-3.155-19.008-8.495-26.487c9.766-1.367,18.786-5.836,25.88-12.931C497.282,340.273,502.035,328.797,502.035,316.589z     M226.971,147.104h150.878c14.354,0,26.031,11.678,26.031,26.031c0,14.353-11.677,26.031-26.031,26.031H226.971    c-14.354,0-26.031-11.677-26.031-26.031C200.941,158.78,212.617,147.104,226.971,147.104z M160.859,226.464    c4.915-4.917,11.453-7.624,18.408-7.624h246.297c14.355,0,26.033,11.67,26.033,26.016c0,6.967-2.705,13.502-7.625,18.409    c-4.915,4.917-11.453,7.624-18.408,7.624h-65.744c-13.465-16.879-34.187-27.725-57.408-27.725    c-23.221,0-43.943,10.845-57.408,27.725h-65.736c-14.354,0-26.032-11.678-26.032-26.033    C153.235,237.899,155.938,231.371,160.859,226.464z M356.172,316.593c0,29.643-24.118,53.761-53.761,53.761    c-29.644,0-53.762-24.118-53.762-53.761c0-29.643,24.118-53.761,53.762-53.761C332.054,262.832,356.172,286.95,356.172,316.593z     M122.446,316.589c0-6.941,2.71-13.482,7.615-18.399c4.936-4.922,11.477-7.633,18.418-7.633h85.289    c-3.082,8.097-4.784,16.87-4.784,26.036c0,9.163,1.702,17.933,4.783,26.031h-85.286    C134.124,342.622,122.446,330.943,122.446,316.589z M377.851,486.081H226.971c-14.354,0-26.031-11.678-26.031-26.031    c0-14.341,11.657-26.007,25.994-26.029h150.954c14.336,0.021,25.993,11.688,25.993,26.029    C403.881,474.404,392.205,486.081,377.851,486.081z M443.982,406.721c-4.935,4.922-11.475,7.633-18.417,7.633H179.267    c-14.354,0-26.032-11.678-26.032-26.032c0-6.955,2.707-13.493,7.616-18.4c4.935-4.922,11.475-7.633,18.417-7.633h65.731    c13.465,16.882,34.19,27.731,57.413,27.731s43.947-10.848,57.412-27.731h65.741c14.355,0,26.033,11.678,26.033,26.032    C451.598,395.275,448.89,401.814,443.982,406.721z M474.743,334.997c-4.915,4.917-11.453,7.624-18.408,7.624h-85.28    c3.08-8.096,4.783-16.866,4.783-26.031c0-9.166-1.703-17.939-4.784-26.036h85.282c14.354,0,26.032,11.678,26.032,26.032    C482.368,323.543,479.659,330.08,474.743,334.997z"/>
	</g>
</g>
<g>
	<g>
		<circle cx="492.333" cy="147.856" r="9.833"/>
	</g>
</g>
<g>
	<g>
		<circle cx="502.166" cy="495.929" r="9.833"/>
	</g>
</g>
<g>
	<g>
		<circle cx="69.527" cy="344.509" r="9.833"/>
	</g>
</g>
<g>
	<g>
		<circle cx="81.327" cy="187.176" r="9.833"/>
	</g>
</g>
<g>
</g>
<g>
</g>
<g>
</g>
<g>
</g>
<g>
</g>
<g>
</g>
<g>
</g>
<g>
</g>
<g>
</g>
<g>
</g>
<g>
</g>
<g>
</g>
<g>
</g>
<g>
</g>
<g>
</g>
</svg>