<svg height="512pt" viewBox="-23 0 511 512" width="512pt" xmlns="http://www.w3.org/2000/svg"><path d="m402.964844 300c5.523437 0 10-4.480469 10-10s-4.476563-10-10-10c-5.519532 0-10 4.480469-10 10s4.480468 10 10 10zm0 0"/><path d="m62.964844 300c5.523437 0 10-4.480469 10-10s-4.476563-10-10-10c-5.519532 0-10 4.480469-10 10s4.480468 10 10 10zm0 0"/><path d="m1.996094 312.296875c-4.675782 24.902344 1.6875 47.546875 17.90625 63.761719 13.027344 13.03125 29.457031 19.429687 47.660156 19.429687 22.839844 0 48.46875-10.085937 73.625-29.785156 10.570312 43.792969 38.035156 114.875 81.777344 125.125v11.171875c0 5.523438 4.480468 10 10 10 5.523437 0 10-4.476562 10-10v-11.171875c43.832031-10.269531 71.257812-81.539063 81.777344-125.125 25.160156 19.699219 50.785156 29.785156 73.628906 29.785156 18.195312-.003906 34.632812-6.398437 47.652344-19.425781 16.226562-16.21875 22.585937-38.867188 17.910156-63.765625-4.757813-25.347656-20.730469-52.195313-46.1875-77.648437-33.660156-33.660157-82.339844-63.960938-120.890625-76.003907 4.019531-8.933593 6.109375-18.636719 6.109375-28.644531 0-29.882812-18.824219-55.4375-45.234375-65.460938 10.320312-26.632812 35.941406-44.539062 65.234375-44.539062 5.523437 0 10-4.476562 10-10s-4.476563-10-10-10c-38.71875 0-72.445313 24.34375-84.9375 60.203125-1.675782-.121094-3.359375-.203125-5.0625-.203125-1.699219 0-3.382813.082031-5.054688.203125-12.496094-35.859375-46.222656-60.203125-84.945312-60.203125-5.519532 0-10 4.476562-10 10s4.480468 10 10 10c29.296875 0 54.917968 17.90625 65.238281 44.539062-26.410156 10.023438-45.238281 35.578126-45.238281 65.460938 0 10.003906 2.09375 19.710938 6.109375 28.648438-57.808594 18.054687-153.84375 83.160156-167.078125 153.648437zm230.96875-72.835937c4.960937 12.796874 11.675781 26.476562 19.949218 40.539062h-39.894531c8.273438-14.0625 14.988281-27.738281 19.945313-40.539062zm-32.609375 60.539062h65.222656c9.871094 14.539062 20.617187 28.144531 31.570313 40h-128.363282c10.953125-11.851562 21.699219-25.460938 31.570313-40zm90.433593 106h-115.644531c-5.882812-14.316406-10.960937-30.175781-14.75-46.011719h145.140625c-3.785156 15.839844-8.863281 31.695313-14.746094 46.011719zm-57.824218 66c-15.691406 0-33.34375-16.941406-48.550782-46.011719h97.109376c-15.210938 29.070313-32.863282 46.011719-48.558594 46.011719zm211.316406-156.011719c3.46875 18.476563-.816406 34.359375-12.398438 45.933594-10.738281 10.742187-25.339843 15.238281-42.207031 12.988281-44.335937-5.902344-85.699219-52.855468-110.402343-90.402344-22.519532-34.25-36.09375-67.632812-36.308594-89.296874 0-.015626 0-.03125 0-.046876.003906-.3125.003906-.628906 0-.941406 0-.015625 0-.03125 0-.046875.070312-7.375 1.777344-12.789062 5.085937-16.097656 3.363281-3.367187 9.082031-5.078125 16.636719-5.078125 4.402344 0 9.429688.582031 14.976562 1.753906.003907 0 .003907 0 .003907.003906 36.066406 7.613282 89.347656 39.445313 123.9375 74.035157 22.597656 22.589843 36.664062 45.828125 40.675781 67.195312zm-211.316406-235.988281c27.570312 0 50 22.429688 50 50 0 8.476562-2.09375 16.648438-6.09375 23.953125-19.074219-2.8125-33.515625.523437-42.964844 9.984375-.324219.324219-.632812.660156-.941406.996094-.304688-.335938-.613282-.667969-.933594-.992188-9.453125-9.464844-23.898438-12.796875-42.96875-9.988281-4-7.304687-6.097656-15.476563-6.097656-23.953125 0-27.570312 22.433594-50 50-50zm-46.695313 94.753906c5.542969-1.175781 10.570313-1.757812 14.972657-1.757812 7.554687 0 13.277343 1.714844 16.644531 5.085937 3.304687 3.304688 5.011719 8.71875 5.082031 16.089844v.050781c-.003906.3125-.003906.628906 0 .941406v.046876c-.214844 21.664062-13.789062 55.046874-36.308594 89.296874-24.605468 37.402344-65.96875 84.484376-110.402344 90.398438-16.871093 2.25-31.46875-2.242188-42.210937-12.988281-11.574219-11.574219-15.859375-27.457031-12.390625-45.933594 12.054688-64.207031 112.363281-130.195313 164.613281-141.230469zm0 0"/><path d="m98.441406 269.613281c22.835938-20.75 53.003906-40.03125 78.730469-50.328125 5.128906-2.054687 7.621094-7.875 5.570313-13-2.054688-5.128906-7.875-7.621094-13-5.570312-27.792969 11.125-60.265626 31.851562-84.75 54.09375-4.089844 3.714844-4.390626 10.039062-.679688 14.125 3.71875 4.09375 10.046875 4.386718 14.128906.679687zm0 0"/><path d="m288.207031 219.316406c25.882813 10.105469 56.261719 29.375 79.285157 50.292969 4.078124 3.707031 10.402343 3.421875 14.125-.675781 3.714843-4.085938 3.410156-10.410156-.675782-14.125-24.710937-22.453125-57.457031-43.191406-85.457031-54.125-5.148437-2.007813-10.945313.535156-12.953125 5.679687s.535156 10.941407 5.675781 12.953125zm0 0"/></svg>