<?xml version="1.0" encoding="UTF-8"?>
<svg width="512px" height="500px" viewBox="0 0 512 500" version="1.1" xmlns="http://www.w3.org/2000/svg" xmlns:xlink="http://www.w3.org/1999/xlink">
    <!-- Generator: Sketch 55.1 (78136) - https://sketchapp.com -->
    <title>Untitled 13</title>
    <desc>Created with Sketch.</desc>
    <g id="Page-1" stroke="none" stroke-width="1" fill="none" fill-rule="evenodd">
        <g id="bee-hive" fill="#FFFFFF" fill-rule="nonzero">
            <path d="M502.035,310.589 C502.035,287.587 484.949,268.508 462.803,265.356 C468.294,257.679 471.266,248.504 471.266,238.857 C471.266,213.668 450.764,193.174 425.566,193.174 L415.373,193.174 C420.52,185.779 423.549,176.807 423.549,167.135 C423.549,141.937 403.049,121.438 377.852,121.438 L312.247,121.438 L312.247,90.168 C351.243,93.243 387.342,94.322 418.685,94.322 C427.093,94.322 435.166,94.245 442.858,94.108 C448.289,94.011 452.611,89.532 452.516,84.102 C452.42,78.671 447.909,74.341 442.51,74.444 C425.615,74.743 409.213,74.717 393.285,74.427 L408.292,55.824 C411.702,51.597 411.039,45.406 406.812,41.997 C402.581,38.586 396.395,39.249 392.984,43.476 L368.563,73.751 C348.975,73.031 330.199,71.905 312.25,70.459 L312.25,63.194 C312.25,57.763 307.849,53.361 302.417,53.361 C296.985,53.361 292.584,57.764 292.584,63.194 L292.584,68.719 C221.92,61.9 165.289,50.295 124.737,39.725 C119.605,38.388 114.664,37.046 109.876,35.708 L156.096,21.974 C161.302,20.427 164.268,14.953 162.722,9.747 C161.175,4.542 155.7,1.578 150.496,3.122 L75.704,25.345 C35.723,12.208 14.619,1.476 14.339,1.332 C9.513,-1.155 3.586,0.738 1.097,5.563 C-1.393,10.389 0.5,16.321 5.327,18.81 C6.932,19.639 45.477,39.318 118.961,58.542 C129.296,61.247 139.627,63.756 149.927,66.087 L172.527,97.445 C174.449,100.112 177.458,101.529 180.512,101.529 C182.505,101.529 184.515,100.926 186.253,99.672 C190.658,96.496 191.656,90.351 188.481,85.945 L178.511,72.112 C217.777,79.819 256.256,85.037 292.582,88.464 L292.582,121.436 L226.976,121.436 C201.778,121.436 181.279,141.936 181.279,167.133 C181.279,176.805 184.308,185.778 189.455,193.172 L179.273,193.172 C167.064,193.172 155.589,197.925 146.967,206.547 C138.329,215.161 133.573,226.634 133.573,238.855 C133.573,248.724 136.727,257.863 142.066,265.341 C132.31,266.707 123.286,271.175 116.16,278.282 C107.536,286.93 102.785,298.404 102.785,310.588 C102.785,333.599 119.882,352.682 142.038,355.825 C136.546,363.509 133.572,372.683 133.572,382.32 C133.572,407.518 154.072,428.019 179.271,428.019 L189.447,428.019 C184.305,435.411 181.279,444.38 181.279,454.048 C181.279,479.246 201.779,499.745 226.976,499.745 L377.854,499.745 C403.052,499.745 423.551,479.245 423.551,454.048 C423.551,444.38 420.525,435.412 415.383,428.019 L425.568,428.019 C437.755,428.019 449.228,423.269 457.882,414.635 C466.514,406.004 471.268,394.528 471.268,382.32 C471.268,372.451 468.113,363.312 462.773,355.833 C472.539,354.466 481.559,349.997 488.653,342.902 C497.282,334.273 502.035,322.797 502.035,310.589 Z M226.971,141.104 L377.849,141.104 C392.203,141.104 403.88,152.782 403.88,167.135 C403.88,181.488 392.203,193.166 377.849,193.166 L226.971,193.166 C212.617,193.166 200.94,181.489 200.94,167.135 C200.94,152.78 212.617,141.104 226.971,141.104 Z M160.859,220.464 C165.774,215.547 172.312,212.84 179.267,212.84 L425.564,212.84 C439.919,212.84 451.597,224.51 451.597,238.856 C451.597,245.823 448.892,252.358 443.972,257.265 C439.057,262.182 432.519,264.889 425.564,264.889 L359.82,264.889 C346.355,248.01 325.633,237.164 302.412,237.164 C279.191,237.164 258.469,248.009 245.004,264.889 L179.268,264.889 C164.914,264.889 153.236,253.211 153.236,238.856 C153.236,231.899 155.938,225.371 160.859,220.464 Z M356.172,310.593 C356.172,340.236 332.054,364.354 302.411,364.354 C272.767,364.354 248.649,340.236 248.649,310.593 C248.649,280.95 272.767,256.832 302.411,256.832 C332.054,256.832 356.172,280.95 356.172,310.593 Z M122.446,310.589 C122.446,303.648 125.156,297.107 130.061,292.19 C134.997,287.268 141.538,284.557 148.479,284.557 L233.768,284.557 C230.686,292.654 228.984,301.427 228.984,310.593 C228.984,319.756 230.686,328.526 233.768,336.624 L148.481,336.624 C134.124,336.622 122.446,324.943 122.446,310.589 Z M377.851,480.081 L226.971,480.081 C212.617,480.081 200.94,468.403 200.94,454.05 C200.94,439.709 212.597,428.043 226.934,428.021 L377.888,428.021 C392.224,428.042 403.881,439.709 403.881,454.05 C403.881,468.404 392.205,480.081 377.851,480.081 Z M443.982,400.721 C439.047,405.643 432.507,408.354 425.565,408.354 L179.267,408.354 C164.913,408.354 153.235,396.676 153.235,382.322 C153.235,375.367 155.942,368.829 160.851,363.922 C165.786,359 172.326,356.289 179.268,356.289 L244.999,356.289 C258.464,373.171 279.189,384.02 302.412,384.02 C325.635,384.02 346.359,373.172 359.824,356.289 L425.565,356.289 C439.92,356.289 451.598,367.967 451.598,382.321 C451.598,389.275 448.89,395.814 443.982,400.721 Z M474.743,328.997 C469.828,333.914 463.29,336.621 456.335,336.621 L371.054,336.621 C374.135,328.525 375.838,319.755 375.838,310.59 C375.838,301.424 374.135,292.651 371.054,284.554 L456.336,284.554 C470.69,284.554 482.368,296.232 482.368,310.586 C482.368,317.543 479.659,324.08 474.743,328.997 Z" id="Shape"></path>
            <circle id="Oval" cx="492.333" cy="141.856" r="9.833"></circle>
            <circle id="Oval" cx="502.166" cy="489.929" r="9.833"></circle>
            <circle id="Oval" cx="69.527" cy="338.509" r="9.833"></circle>
            <circle id="Oval" cx="81.327" cy="181.176" r="9.833"></circle>
        </g>
    </g>
</svg>