<?xml version="1.0" encoding="UTF-8"?>
<svg width="204px" height="222px" viewBox="0 0 204 222" version="1.1" xmlns="http://www.w3.org/2000/svg" xmlns:xlink="http://www.w3.org/1999/xlink">
    <!-- Generator: Sketch 55.1 (78136) - https://sketchapp.com -->
    <title>Untitled 15</title>
    <desc>Created with Sketch.</desc>
    <g id="Page-1" stroke="none" stroke-width="1" fill="none" fill-rule="evenodd">
        <g id="fat-bee" fill="#A9A9A9" fill-rule="nonzero">
            <path d="M200.788,120.069 C193.235,101.836 177.765,84.454 157.228,71.125 C151.617,67.483 145.859,64.299 140.201,61.646 C140.202,61.572 140.205,61.498 140.205,61.423 C140.205,45.886 130.8,32.51 117.387,26.673 L130.257,13.803 C133.186,10.874 133.186,6.125 130.257,3.196 C127.328,0.267 122.579,0.267 119.651,3.196 L102.413,20.434 L85.344,3.367 C82.415,0.438 77.666,0.438 74.738,3.367 C71.809,6.296 71.809,11.045 74.738,13.973 L87.382,26.618 C73.903,32.426 64.441,45.839 64.441,61.423 C64.441,61.497 64.445,61.571 64.445,61.646 C58.786,64.299 53.028,67.484 47.417,71.126 C26.88,84.455 11.411,101.836 3.858,120.069 C-4.163,139.433 5.066,161.714 24.431,169.736 C29.08,171.661 33.97,172.637 38.965,172.637 C44.973,172.637 50.723,171.224 55.866,168.677 C64.35,182.62 78.593,191.975 94.822,194.197 L94.822,214.147 C94.822,218.289 98.18,221.647 102.322,221.647 C106.464,221.647 109.822,218.289 109.822,214.147 L109.822,194.197 C126.05,191.975 140.293,182.62 148.778,168.679 C153.92,171.225 159.671,172.637 165.679,172.637 C170.675,172.637 175.565,171.661 180.214,169.736 C199.58,161.714 208.809,139.433 200.788,120.069 L200.788,120.069 Z M102.323,38.541 C112.925,38.541 121.864,45.791 124.449,55.592 C118.563,53.869 113.102,52.931 108.43,52.931 L96.215,52.932 C91.543,52.932 86.082,53.87 80.196,55.593 C82.781,45.791 91.72,38.541 102.323,38.541 L102.323,38.541 Z M102.323,179.715 C92.94,179.715 84.172,176.449 77.278,170.782 L127.369,170.782 C120.475,176.449 111.706,179.715 102.323,179.715 Z M130.548,149.166 C131.524,151.52 132.733,153.722 134.11,155.782 L70.533,155.782 C71.916,153.714 73.131,151.502 74.111,149.136 L77.531,140.782 L127.115,140.782 L130.548,149.166 Z M83.672,125.782 L89.813,110.782 L114.833,110.782 L120.974,125.782 L83.672,125.782 Z M95.954,95.782 L102.323,80.227 L108.692,95.782 L95.954,95.782 L95.954,95.782 Z M38.965,157.637 C35.949,157.637 32.99,157.045 30.172,155.878 C18.448,151.022 12.862,137.533 17.717,125.81 C27.779,101.518 53.742,82.404 74.754,73.462 C75.095,73.347 75.426,73.214 75.74,73.055 C81.319,70.748 86.526,69.165 90.949,68.423 L77.879,100.344 C77.872,100.361 77.865,100.378 77.858,100.395 L65.594,130.348 C65.588,130.362 65.583,130.375 65.577,130.388 L60.24,143.424 C58.853,146.771 56.743,149.65 54.142,151.932 C54.041,152.012 53.943,152.096 53.846,152.18 C49.779,155.629 44.555,157.636 38.965,157.637 Z M174.475,155.877 C171.656,157.044 168.697,157.636 165.68,157.636 C160.06,157.636 154.809,155.608 150.733,152.129 C150.669,152.074 150.604,152.019 150.538,151.965 C147.924,149.684 145.805,146.801 144.417,143.452 L139.066,130.382 C139.062,130.371 139.057,130.361 139.053,130.35 L126.795,100.41 C126.785,100.385 126.775,100.359 126.764,100.334 L113.696,68.415 C118.124,69.155 123.344,70.743 128.94,73.059 C129.23,73.205 129.535,73.325 129.846,73.433 C150.853,82.364 176.858,101.493 186.93,125.809 C191.785,137.533 186.198,151.021 174.475,155.877 Z" id="Shape"></path>
        </g>
    </g>
</svg>